<?xml version="1.0" encoding="utf-8"?>
<svg viewBox="0 0 500 458.47"  xmlns="http://www.w3.org/2000/svg">
  <path stroke="none" d="M 114.073 165.741 C 133.957 209.854 127.883 255.603 100.508 267.952 C 73.131 280.3 34.819 254.562 14.934 210.457 C -4.95 166.353 1.123 120.599 28.5 108.252 C 55.876 95.907 94.187 121.647 114.073 165.741 Z M 384.686 165.741 C 364.8 209.854 370.873 255.603 398.251 267.952 C 425.628 280.3 463.937 254.562 483.825 210.457 C 503.709 166.353 497.634 120.599 470.258 108.252 C 442.883 95.907 404.57 121.647 384.686 165.741 Z M 230.437 77.326 C 240.63 124.614 225.093 168.076 195.735 174.407 C 166.38 180.731 134.317 147.523 124.126 100.239 C 113.935 52.953 129.472 9.489 158.83 3.164 C 188.185 -3.164 220.246 30.039 230.437 77.326 Z M 267.591 77.367 C 257.407 124.654 272.933 168.119 302.287 174.441 C 331.645 180.774 363.706 147.566 373.895 100.281 C 384.088 52.994 368.553 9.531 339.195 3.205 C 309.836 -3.123 277.777 30.08 267.59 77.367 L 267.591 77.367 Z M 193.694 235.4 C 186.528 247.775 153.326 288.741 130.361 302.716 C 107.399 316.691 78.943 337.156 83.719 384.147 C 88.492 431.148 136.696 451.263 168.43 449.479 C 200.165 447.703 259.997 441.861 302.714 447.782 C 345.429 453.703 399.344 449.216 411.968 404.219 C 424.594 359.222 396.357 330.553 374.322 314.286 C 352.289 298.029 315.495 249.393 304.158 227.065 C 292.824 204.746 235.131 163.868 193.694 235.4 Z" style="transform-origin: 249.379px 226.125px;"/>
</svg>